<?xml version="1.0" encoding="utf-8"?>
<!-- Generator: Adobe Illustrator 25.0.0, SVG Export Plug-In . SVG Version: 6.00 Build 0)  -->
<svg version="1.1" id="Calque_1" xmlns="http://www.w3.org/2000/svg" xmlns:xlink="http://www.w3.org/1999/xlink" x="0px" y="0px"
	 viewBox="0 0 58.1 61.5" style="enable-background:new 0 0 58.1 61.5;" xml:space="preserve">
<g>
	<path d="M10.8,30.7V32c0,2.1,1.7,3.8,3.8,3.8h1.3v-1.3c0-2.1-1.7-3.8-3.8-3.8L10.8,30.7z M34.4,0l-0.8,0.1
		c-1.2,0.2-2.1,1.2-2.1,2.4v0.3l0.2,0.8l0.7-0.1c1.2-0.1,2.1-1.1,2.1-2.3c0-0.1,0-0.3,0-0.3L34.4,0z M14.3,44.4h-1.9
		c-3,0-5.5,2.3-5.5,5.3v1.8l2,0.1c0,0,0.1,0,0.2,0c2.9,0,5.1-2.5,5.2-5.4L14.3,44.4z M21.4,53.5L21.1,54c-0.1,0.3-0.3,0.6-0.3,0.9
		c0,0.6,0.3,1.2,0.9,1.5l0.5,0.3l0.3-0.5c0.2-0.3,0.3-0.6,0.3-0.9c0-0.6-0.3-1.1-0.9-1.4L21.4,53.5z M22.4,9.1l-0.7,0.2
		c-1,0.3-1.7,1.2-1.7,2.2c0,0.2,0,0.4,0.1,0.7l0.2,0.7l0.8-0.2c1-0.3,1.7-1.3,1.7-2.3c0-0.2,0-0.5-0.1-0.7L22.4,9.1z M17.8,59.6
		l0.9-0.4c1.1-0.5,1.7-1.6,1.7-2.7c0-0.4,0-0.8-0.3-1.3l-0.4-0.9l-0.9,0.5c-1.1,0.6-1.7,1.6-1.7,2.7c0,0.4,0.1,0.8,0.3,1.2
		L17.8,59.6z M6,23.2l3-0.9c3.8-1.2,6.3-4.9,6.3-8.7c0-0.9-0.1-1.8-0.4-2.7l-0.9-3l-3,0.9c-3.9,1.2-6.3,4.8-6.3,8.6
		c0,0.9,0.1,1.9,0.4,2.8L6,23.2z M37,5.9l-0.7-0.8C35.7,4.4,34.8,4,33.9,4c-0.7,0-1.4,0.2-1.9,0.7l-0.8,0.7l0.6,0.8
		c0.6,0.7,1.6,1.1,2.4,1.1c0.7,0,1.3-0.2,1.9-0.7L37,5.9z M2.4,18.8l-0.2,0.6c0,0.2,0,0.3,0,0.4c0,0.8,0.6,1.7,1.4,1.9l0.7,0.1
		l0.2-0.6c0-0.1,0-0.3,0-0.4c0-0.9-0.6-1.7-1.4-1.9L2.4,18.8z M15.7,57.8l0.3,0c0.5,0,0.8-0.4,0.8-0.9v-0.1l0-0.3h-0.3
		c-0.5,0.1-0.8,0.5-0.8,0.9L15.7,57.8z M14.8,51.6l1.2-0.3c1.7-0.4,2.9-2,2.9-3.7c0-0.3,0-0.5-0.1-0.7l-0.3-1.3L17.4,46
		c-1.7,0.3-2.9,1.9-2.9,3.6c0,0.3,0,0.5,0.1,0.8L14.8,51.6z M2.7,22l-1.2,1.7c-0.7,1-1,2.2-1,3.4c0,2,1,3.9,2.8,5.1l1.7,1.1l1.2-1.7
		c0.7-1,1-2.2,1-3.4c0-1.9-1-3.9-2.7-5.1L2.7,22z M16.4,18.8l-1.1,0.1c-1.6,0.2-2.9,1.6-2.9,3.2c0,0.2,0,0.3,0,0.4l0.1,1.1l1.1-0.2
		c1.6-0.2,2.8-1.6,2.8-3.2c0-0.1,0-0.3,0-0.4L16.4,18.8z M9.1,30.2l-1,0.4c-1.4,0.6-2.1,1.8-2.1,3.2c0,0.4,0.1,0.8,0.2,1.3l0.4,1
		l1.1-0.4c1.3-0.6,2.1-1.8,2.1-3.1c0-0.4-0.1-0.9-0.3-1.3L9.1,30.2z M20.8,47l0.3,0.3c0.3,0.3,0.6,0.4,1,0.4s0.7-0.2,1-0.4l0.3-0.3
		L23,46.7c-0.3-0.2-0.6-0.4-1-0.4s-0.7,0.2-1,0.4L20.8,47z M30.7,47.9l0.5,0.3c0.3,0.3,0.7,0.4,1.1,0.4c0.5,0,0.9-0.1,1.2-0.5
		l0.4-0.4l-0.5-0.3c-0.3-0.3-0.7-0.4-1.1-0.4c-0.5,0-0.9,0.2-1.3,0.5L30.7,47.9z M38.5,5.9l-0.2,0.7c0,0.2,0,0.3,0,0.5
		c0,1,0.7,2,1.8,2.2l0.7,0.1L41,8.7c0-0.2,0-0.3,0-0.6c0-1-0.7-1.9-1.7-2.1L38.5,5.9z M42.6,37.5l-0.2,0.5c-0.1,0.2-0.1,0.5-0.1,0.7
		c0,0.7,0.3,1.3,1,1.7l0.5,0.3l0.3-0.5c0.1-0.3,0.2-0.5,0.2-0.8c0-0.7-0.3-1.3-1-1.7L42.6,37.5z M15.3,6.6L15,6.3
		c-0.3-0.3-0.6-0.5-1-0.5c-0.3,0-0.6,0.1-0.9,0.3l-0.3,0.3l0.3,0.3c0.3,0.3,0.6,0.4,1,0.4c0.3,0,0.6-0.1,0.9-0.3L15.3,6.6z
		 M9.5,53.9l0.9,0.3c0.3,0.1,0.6,0.2,0.8,0.2c1.1,0,2.1-0.7,2.5-1.8l0.3-0.8l-0.9-0.3c-0.3-0.1-0.6-0.1-0.9-0.1
		c-1,0-2.1,0.7-2.4,1.7L9.5,53.9z M25.3,11.7l0.5-0.8c0.2-0.4,0.3-0.9,0.3-1.4c0-1-0.4-1.9-1.4-2.4l-0.8-0.4l-0.4,0.8
		c-0.3,0.4-0.4,0.9-0.4,1.4c0,1,0.5,1.9,1.4,2.4L25.3,11.7z M19,23.6l0.6-0.8c0.4-0.5,0.6-1.1,0.6-1.7c0-0.9-0.4-1.8-1.2-2.4
		l-0.8-0.6l-0.6,0.8C17.2,19.4,17,20,17,20.6c0,0.9,0.4,1.8,1.2,2.4L19,23.6z M14.8,28.1l0.4,0.6c0.4,0.6,1,0.9,1.7,0.9
		c0.4,0,0.9-0.1,1.2-0.3l0.6-0.4l-0.4-0.6c-0.4-0.6-1-0.9-1.7-0.9c-0.4,0-0.8,0.1-1.2,0.3L14.8,28.1z M24.8,0.6L23.5,1
		c-1.8,0.6-2.8,2.1-2.8,3.8c0,0.4,0,0.8,0.2,1.2l0.4,1.3l1.4-0.4c1.7-0.6,2.8-2.1,2.8-3.8c0-0.4-0.1-0.8-0.2-1.2L24.8,0.6z
		 M24.8,12.6l0,0.5c0,1,0.7,1.7,1.5,1.7l0.5,0l0-0.6c0-1-0.7-1.7-1.5-1.7L24.8,12.6z M19.3,37.7L17.9,37c-0.7-0.4-1.3-0.5-2-0.5
		c-1.7,0-3.2,1-3.9,2.7l-0.6,1.4l1.4,0.7c0.7,0.3,1.4,0.5,2,0.5c1.7,0,3.1-1,3.8-2.7L19.3,37.7z M3.5,45.8l1-0.4c1.2-0.6,2-1.7,2-3
		c0-0.5-0.1-1-0.3-1.4l-0.5-1l-1,0.4c-1.2,0.6-2,1.8-2,3c0,0.4,0.1,0.9,0.3,1.4L3.5,45.8z M30,61.4l0.2-1.7c0-0.2,0-0.3,0-0.6
		c0-2.7-2.1-4.9-4.9-5.2l-1.8-0.2l-0.1,1.8v0.4c0,2.8,2,5.1,4.8,5.3L30,61.4z M17.1,35.5l0.2,0.3c0.3,0.4,0.6,0.6,1,0.6
		c0.2,0,0.4,0,0.6-0.2l0.4-0.2l-0.2-0.3c-0.3-0.4-0.7-0.7-1.1-0.7c-0.2,0-0.3,0.1-0.5,0.1L17.1,35.5z M37,59.3l-0.8-0.7
		c-0.6-0.4-1.3-0.6-1.9-0.6c-1,0-1.9,0.4-2.6,1.3L31,60.2l0.9,0.7c0.6,0.3,1.2,0.6,1.9,0.6c1,0,1.9-0.5,2.5-1.3L37,59.3z M27.8,46.6
		l-1.4,0c-2.2,0.2-3.8,1.9-3.8,4.1l0,1.6l1.4,0c2.1-0.2,3.8-1.9,3.8-4.1L27.8,46.6z M17.8,51.9l0.4,0.7c0.4,0.7,1.1,1,1.8,1
		c0.4,0,0.8-0.1,1.2-0.3l0.7-0.4l-0.5-0.7c-0.4-0.7-1.1-1-1.8-1c-0.4,0-0.8,0.1-1.2,0.4L17.8,51.9z M12.2,56.3l1.1,0.3
		c0.3,0.1,0.7,0.1,1,0.1c1.5,0,2.9-1,3.3-2.5l0.3-1.1l-1.1-0.3c-0.3,0-0.6-0.2-1-0.2c-1.6,0-2.9,1-3.4,2.6L12.2,56.3z M5.1,45.8
		l0.3,0.3c0.3,0.2,0.6,0.3,0.9,0.3c0.4,0,0.8-0.2,1-0.5l0.3-0.3l-0.3-0.3c-0.3-0.3-0.6-0.3-1-0.3s-0.8,0.1-1,0.5L5.1,45.8z
		 M29.3,49.3l0.3-0.2c0.3-0.3,0.3-0.5,0.3-0.8c0-0.2,0-0.5-0.2-0.7l-0.2-0.3l-0.3,0.3c-0.3,0.2-0.3,0.5-0.3,0.8c0,0.2,0,0.5,0.2,0.7
		L29.3,49.3z M39.5,5.6l0.1-1.2c0-0.1,0-0.3,0-0.4c0-1.7-1.1-3.1-2.8-3.4l-1.1-0.1l-0.2,1c0,0.2,0,0.4,0,0.6c0,1.6,1.2,3,2.9,3.2
		L39.5,5.6z M31.2,9.6l0.8,2.1c1,2.4,3.4,3.9,5.9,3.9c0.8,0,1.7-0.1,2.5-0.5l2.1-0.9l-0.9-2c-1-2.5-3.5-4-5.9-4
		c-0.8,0-1.7,0.2-2.5,0.5L31.2,9.6z M16.4,29.8l-0.3,0.9C16,31,16,31.3,16,31.6c0,1.1,0.7,2.2,1.8,2.6l0.9,0.3l0.3-0.9
		c0.1-0.3,0.1-0.6,0.1-0.9c0-1.1-0.7-2.2-1.8-2.6L16.4,29.8z M22.8,44.3l-0.1,0.6V45c0,0.8,0.6,1.5,1.5,1.6l0.5,0l0-0.5V46
		c0-0.8-0.6-1.5-1.4-1.6L22.8,44.3z M26.7,10.7l0.1,1c0.3,1.5,1.5,2.5,3,2.5c0.1,0,0.3,0,0.5,0l1-0.2l-0.2-1
		c-0.3-1.4-1.5-2.4-2.9-2.4c-0.2,0-0.3,0-0.5,0L26.7,10.7z M26.2,3.1l-0.3,1.4c-0.1,0.3-0.1,0.7-0.1,1c0,2,1.4,3.7,3.4,4.2l1.4,0.3
		l0.3-1.4c0.1-0.3,0.1-0.7,0.1-1c0-2-1.4-3.8-3.4-4.2L26.2,3.1z M30.6,0.3L29.8,0c-0.2,0-0.3,0-0.4,0c-1.1,0-2.2,0.9-2.4,2l-0.2,0.8
		L27.6,3c0.1,0,0.3,0,0.4,0c1.1,0,2.2-0.8,2.4-2L30.6,0.3z M23.7,13.3l-0.4,0.4c-0.3,0.3-0.4,0.7-0.4,1.2s0.2,0.9,0.5,1.2l0.4,0.4
		l0.4-0.4c0.3-0.3,0.4-0.8,0.4-1.2c0-0.5-0.1-0.9-0.5-1.2L23.7,13.3z M15.8,14.2l0.4,1.3c0.6,1.7,2.1,2.8,3.8,2.8
		c0.4,0,0.9-0.1,1.3-0.3l1.4-0.4l-0.4-1.3c-0.5-1.7-2.1-2.8-3.8-2.8c-0.5,0-1,0-1.4,0.2L15.8,14.2z M19.3,24.7l-0.5-0.2
		c-0.2-0.1-0.4-0.1-0.7-0.1c-0.6,0-1.3,0.3-1.6,1l-0.2,0.6l0.5,0.2c0.2,0.1,0.4,0.1,0.7,0.1c0.7,0,1.3-0.4,1.6-1.1L19.3,24.7z
		 M12.5,7l-0.3,0c-0.5,0-0.9,0.3-1,0.8V8l0.3,0c0.6,0,0.9-0.3,1-0.8L12.5,7z M0.6,31.1l-0.3,0.3C0.1,31.6,0,31.9,0,32.2
		c0,0.3,0.1,0.6,0.3,0.8l0.3,0.3l0.3-0.3c0.2-0.2,0.3-0.4,0.3-0.7c0-0.3-0.2-0.6-0.4-0.9L0.6,31.1z M27.7,51.1l1.2,2.3
		c1.4,2.7,4,4.2,6.8,4.2c1.1,0,2.3-0.3,3.4-0.8l2.3-1.2l-1.1-2.3c-1.4-2.6-4-4.1-6.8-4.1c-1.1,0-2.3,0.3-3.5,0.8L27.7,51.1z
		 M5.8,36.4l-1-0.2c-0.1,0-0.2,0-0.3,0c-1.5,0-2.9,1.1-3.1,2.8l-0.1,1l1,0.2c0.1,0,0.3,0,0.4,0c1.5,0,2.8-1.2,3.1-2.8L5.8,36.4z
		 M12,22.5l-1-0.2c-0.1,0-0.3,0-0.5,0c-1.4,0-2.7,1-2.9,2.4l-0.2,1l1,0.2c0.2,0,0.3,0,0.5,0c1.4,0,2.6-1,2.9-2.4L12,22.5z
		 M30.3,56.3l-0.1,0.4v0.2c0,0.6,0.4,1.1,1,1.3l0.4,0.1l0.1-0.4v-0.2c0-0.6-0.4-1.2-1-1.3L30.3,56.3z M18.1,10l0.8-1
		c0.5-0.7,0.8-1.5,0.8-2.4c0-1.2-0.5-2.3-1.5-3.1l-1-0.8l-0.8,1.1c-0.5,0.7-0.8,1.6-0.8,2.4c0,1.1,0.5,2.2,1.4,2.9L18.1,10z
		 M13.1,29.4l-0.3-1c-0.5-1.4-1.7-2.1-3-2.1c-0.3,0-0.7,0-1.1,0.2l-1,0.4l0.3,1c0.5,1.3,1.7,2.1,3.1,2.1c0.3,0,0.7-0.1,1-0.2
		L13.1,29.4z M21.7,56.9l-0.3,0.7c-0.2,0.3-0.3,0.7-0.3,1c0,0.8,0.5,1.6,1.3,2l0.6,0.3l0.4-0.6c0.2-0.3,0.3-0.7,0.3-1
		c0-0.8-0.4-1.5-1.2-1.9L21.7,56.9z M17.8,13l0-0.6c0-0.8-0.8-1.4-1.6-1.4l-0.7,0l0,0.5c0.1,0.8,0.7,1.5,1.6,1.5L17.8,13z
		 M15.7,23.4l-0.7,0.3c-1,0.4-1.6,1.4-1.6,2.4c0,0.3,0.1,0.6,0.2,0.9l0.3,0.8l0.8-0.3c1-0.4,1.6-1.4,1.6-2.4c0-0.3-0.1-0.7-0.2-1
		L15.7,23.4z M0.5,37l0.8-0.2c1.1-0.2,1.9-1.2,1.9-2.3c0-0.1,0-0.3,0-0.3l-0.1-0.8l-0.8,0.1c-1.1,0.1-1.9,1.1-1.9,2.3
		c0,0.1,0,0.3,0,0.4L0.5,37z M4.2,46.9v0.5c0,0.8,0.7,1.5,1.5,1.5l0.7,0l0-0.5c0-0.8-0.7-1.5-1.5-1.5H4.2z M8.7,36.2l-0.8,0.9
		c-0.7,0.7-1,1.6-1,2.5c0,1,0.4,1.9,1.2,2.7l0.9,0.9l0.8-0.9c0.7-0.7,1-1.7,1-2.6c0-1-0.4-1.9-1.1-2.6L8.7,36.2z M13.1,36.1L12.5,36
		c-0.1,0-0.3-0.1-0.5-0.1c-0.7,0-1.3,0.4-1.5,1.1l-0.2,0.5l0.5,0.2c0.2,0,0.3,0,0.5,0c0.7,0,1.3-0.4,1.5-1L13.1,36.1z M17.5,42.2v1
		c0,1.6,1.4,2.8,2.9,2.8h0.2h1l-0.1-1c0-1.6-1.3-2.8-2.9-2.8H17.5z M19,40.6l0.1,0.5c0.2,0.6,0.7,1,1.4,1c0.1,0,0.3,0,0.4,0l0.5-0.1
		l-0.2-0.5c-0.1-0.6-0.7-1-1.4-1c-0.1,0-0.3,0-0.4,0.1L19,40.6z M15.1,42.1l-0.3,0.6c-0.2,0.3-0.3,0.7-0.3,1c0,0.7,0.3,1.3,1,1.7
		l0.6,0.4l0.4-0.6c0.2-0.3,0.3-0.7,0.3-1c0-0.7-0.4-1.4-1-1.7L15.1,42.1z M7,43.5L7.1,44c0.2,0.5,0.7,0.9,1.2,0.9
		c0.2,0,0.3,0,0.4-0.1l0.4-0.1L9,44.3c-0.1-0.6-0.7-1-1.3-1c-0.1,0-0.3,0-0.3,0L7,43.5z M9.6,44l0.7,0.2c0.2,0,0.3,0.1,0.5,0.1
		c0.9,0,1.8-0.7,2-1.6L13,42l-0.7-0.2c-0.2,0-0.3-0.1-0.5-0.1c-0.9,0-1.7,0.7-2,1.6L9.6,44z M44.9,39.9l0.3,0.7
		c0.3,0.9,1.1,1.4,1.9,1.4c0.3,0,0.5-0.1,0.7-0.1l0.7-0.3l-0.2-0.7c-0.3-0.8-1.1-1.3-2-1.3c-0.2,0-0.5,0-0.7,0.1L44.9,39.9z
		 M42,55.1l0.1,0.8c0.2,1.2,1.2,2.2,2.4,2.2c0.1,0,0.3,0,0.3,0l0.9,0l-0.1-0.9c-0.1-1.3-1.2-2.2-2.5-2.2h-0.3L42,55.1z M40.5,52
		l0.6,0.9c0.6,1,1.7,1.5,2.8,1.5c0.6,0,1.1-0.1,1.7-0.5l0.9-0.6l-0.6-0.9c-0.6-0.9-1.6-1.5-2.7-1.5c-0.6,0-1.1,0.1-1.7,0.4L40.5,52z
		 M52.9,50.5l1.2-0.4c1.7-0.5,2.8-2,2.8-3.7c0-0.3,0-0.7-0.1-1l-0.4-1.2l-1.2,0.3c-1.7,0.5-2.8,2-2.8,3.6c0,0.3,0,0.7,0.1,1
		L52.9,50.5z M40.8,46.6l-1-0.7c-0.6-0.3-1.2-0.5-1.8-0.5c-1.2,0-2.4,0.6-3,1.7l-0.6,1l1,0.6c0.6,0.3,1.2,0.5,1.8,0.5
		c1.2,0,2.4-0.6,3-1.7L40.8,46.6z M19.7,47.1l-0.3,0.7c-0.1,0.3-0.1,0.5-0.1,0.8c0,0.9,0.5,1.7,1.4,2.1l0.7,0.3l0.3-0.7
		c0.1-0.3,0.2-0.6,0.2-0.9c0-0.9-0.5-1.7-1.4-2.1L19.7,47.1z M25.3,52.9l0.4,0.1c0.1,0,0.3,0.1,0.4,0.1c0.6,0,1-0.3,1.2-0.8l0.1-0.3
		l-0.4-0.1c-0.1-0.1-0.3-0.1-0.5-0.1c-0.5,0-1,0.3-1.2,0.8L25.3,52.9z M39.2,49.5l-0.1,0.4v0.2c0,0.7,0.4,1.1,1,1.3l0.4,0.1l0.1-0.4
		v-0.3c0-0.6-0.4-1.1-1-1.3L39.2,49.5z M47.3,15.9l-0.7,0.7c-0.7,0.6-1,1.4-1,2.1c0,0.7,0.2,1.4,0.7,1.9l0.7,0.7l0.7-0.7
		c0.7-0.6,1-1.4,1-2.1c0-0.7-0.2-1.4-0.7-1.9L47.3,15.9z M55.3,16.8l-0.4-0.4c-0.3-0.3-0.8-0.5-1.2-0.5c-0.4,0-0.9,0.2-1.2,0.5
		l-0.4,0.4l0.4,0.3c0.3,0.3,0.8,0.5,1.2,0.5c0.4,0,0.9-0.2,1.2-0.5L55.3,16.8z M48.8,17.1l0.3,0.7c0.4,0.8,1.1,1.3,2,1.3
		c0.3,0,0.6-0.1,0.9-0.2l0.7-0.3l-0.3-0.7c-0.3-0.8-1.2-1.3-2-1.3c-0.3,0-0.6,0.1-0.9,0.2L48.8,17.1z M42.9,16.1l-0.8,1
		c-0.6,0.7-0.9,1.7-0.9,2.6c0,1,0.4,2.1,1.3,2.8l0.9,0.8l0.8-1c0.7-0.7,0.9-1.6,0.9-2.5c0-1-0.4-2.1-1.3-2.9L42.9,16.1z M57.8,15.5
		l-0.4-0.3c-0.2-0.1-0.4-0.1-0.6-0.1c-0.5,0-0.9,0.2-1.1,0.6l-0.2,0.3l0.3,0.2c0.2,0.1,0.4,0.2,0.7,0.2c0.4,0,0.9-0.2,1-0.6
		L57.8,15.5z M50.8,14.4l0.8,0.6c0.5,0.3,1.1,0.5,1.7,0.5c1,0,2-0.5,2.5-1.4l0.6-0.8l-0.8-0.6c-0.5-0.3-1.1-0.5-1.7-0.5
		c-1,0-2,0.4-2.5,1.4L50.8,14.4z M45.4,8.4l0.2-1.4c0-0.2,0.1-0.4,0.1-0.7c0-2.1-1.5-3.8-3.6-4.2l-1.4-0.3l-0.3,1.4
		c0,0.2,0,0.4,0,0.7c0,2.1,1.5,3.8,3.5,4.2L45.4,8.4z M44.5,46.5l1.6,0.8c0.7,0.3,1.5,0.6,2.2,0.6c2,0,3.9-1.2,4.8-3.1l0.8-1.6
		l-1.7-0.8c-0.7-0.3-1.5-0.5-2.2-0.5c-2,0-3.9,1.1-4.8,3L44.5,46.5z M57.2,44.5c0,0.2,0,0.3,0,0.4c0,0.4,0.2,0.7,0.7,0.8l0.2,0
		c0-0.1,0.1-0.1,0.1-0.3c0-0.5-0.3-0.9-0.7-1L57.2,44.5z M38.9,17.4l0.6,0.1c0.2,0,0.3,0,0.4,0c0.9,0,1.7-0.6,1.9-1.4l0.2-0.6
		l-0.7-0.2c-0.1,0-0.3,0-0.4,0c-0.9,0-1.7,0.6-1.9,1.4L38.9,17.4z M46.5,5.6l0.2,0.7c0.2,1,1,1.6,2,1.6c0.1,0,0.2,0,0.3,0l0.7-0.2
		L49.6,7c-0.1-1-1-1.6-1.9-1.6c-0.1,0-0.3,0-0.4,0L46.5,5.6z M51.1,55.1l0.2-1.3c0-0.3,0.1-0.4,0.1-0.7c0-1.8-1.4-3.4-3.2-3.6
		l-1.3-0.2l-0.2,1.3c0,0.2,0,0.4,0,0.6c0,1.8,1.3,3.4,3.1,3.6L51.1,55.1z M43.3,50.4l0-0.6c-0.1-0.8-0.8-1.4-1.6-1.4l-0.8,0l0.1,0.6
		c0.1,0.8,0.7,1.5,1.6,1.5c0.1,0,0.2,0,0.3,0L43.3,50.4z M46,50.3l-0.2-0.4c-0.2-0.5-0.7-0.8-1.1-0.8c-0.1,0-0.3,0-0.5,0.1l-0.4,0.2
		l0.1,0.4c0.2,0.4,0.6,0.7,1.1,0.7c0.2,0,0.3,0,0.5-0.1L46,50.3z M43.7,49l0.3-0.7c0.1-0.3,0.2-0.7,0.2-1c0-0.8-0.5-1.6-1.3-2
		L42.3,45L42,45.7c-0.1,0.3-0.2,0.6-0.2,1c0,0.9,0.5,1.7,1.3,2L43.7,49z M50.2,10.8l0.6-0.3c0.7-0.3,1.1-1,1.1-1.7
		c0-0.2,0-0.4-0.1-0.7l-0.3-0.6l-0.6,0.3c-0.7,0.3-1.1,1-1.1,1.7c0,0.3,0.1,0.5,0.1,0.7L50.2,10.8z M48.3,11.9l0.6-0.4
		c0.4-0.4,0.7-1,0.7-1.5c0-0.5-0.2-0.9-0.5-1.3l-0.4-0.5l-0.5,0.4c-0.5,0.4-0.7,1-0.7,1.6c0,0.4,0.2,0.9,0.5,1.3L48.3,11.9z
		 M43.5,9.2l0.2,0.6c0.3,0.8,1,1.2,1.8,1.2c0.3,0,0.6-0.1,0.8-0.2l0.6-0.2L46.7,10c-0.3-0.8-1-1.2-1.8-1.2c-0.2,0-0.5,0-0.7,0.1
		L43.5,9.2z M41.4,10.5l0.4-0.1c0.7,0,1.1-0.6,1.1-1.3V9l0-0.4l-0.4,0c-0.7,0.1-1.1,0.7-1.1,1.4L41.4,10.5z M54.3,11.9l0.1-0.5
		c0-0.1,0-0.2,0-0.3c0-0.8-0.6-1.5-1.4-1.6l-0.6-0.1l-0.1,0.6c0,0.1,0,0.2,0,0.3c0,0.8,0.6,1.5,1.4,1.6L54.3,11.9z M42.5,15.4
		l1.2,0.5c0.5,0.2,1,0.3,1.5,0.3c1.5,0,2.9-0.9,3.6-2.4l0.5-1.2L48,12c-0.4-0.2-1-0.3-1.4-0.3c-1.5,0-3,0.9-3.6,2.4L42.5,15.4z
		 M19.4,12.2l0-0.6c0-0.5-0.4-1-1-1.2l-0.4,0L18,10.8v0.2c0,0.6,0.4,1.1,1,1.2L19.4,12.2z M20.6,1.5l-0.4,0c-0.7,0-1.3,0.6-1.3,1.3
		l0,0.3h0.5c0.7,0,1.2-0.5,1.3-1.2V1.5z M42.9,40.8L42,41c-1.3,0.3-2.2,1.6-2.2,2.9c0,0.3,0,0.5,0.1,0.8l0.3,1l1-0.3
		c1.3-0.3,2.1-1.5,2.1-2.8c0-0.3,0-0.5-0.1-0.8L42.9,40.8z M37.5,61l0.6-0.2c0.7-0.3,1.1-1,1.1-1.7c0-0.3-0.1-0.5-0.1-0.7l-0.3-0.6
		L38.2,58c-0.7,0.3-1.1,1-1.1,1.7c0,0.2,0.1,0.5,0.1,0.7L37.5,61z M40.8,60.2l0.5-0.5c0.5-0.4,0.7-1,0.7-1.6c0-0.4-0.1-0.9-0.4-1.3
		l-0.4-0.6l-0.5,0.5c-0.5,0.4-0.7,1-0.7,1.6c0,0.4,0.2,0.9,0.5,1.3L40.8,60.2z M46.5,53.8l-0.3,0.6c-0.1,0.3-0.2,0.6-0.2,0.9
		c0,0.8,0.4,1.5,1.1,1.8l0.6,0.3l0.3-0.7c0.2-0.3,0.2-0.6,0.2-0.9c0-0.7-0.4-1.4-1.1-1.7L46.5,53.8z M52.8,52.7l0-0.3
		c0,0,0-0.2,0-0.3c0-0.4-0.3-0.8-0.7-0.9l-0.3-0.1l-0.1,0.3c0,0.1,0,0.2,0,0.3c0,0.4,0.3,0.9,0.8,1L52.8,52.7z M51.8,49.2l-0.2-0.3
		c-0.2-0.4-0.7-0.6-1-0.6c-0.2,0-0.3,0-0.5,0.1l-0.3,0.2l0.2,0.3c0.2,0.3,0.7,0.6,1,0.6c0.2,0,0.3,0,0.5-0.1L51.8,49.2z M43.4,44.1
		l0.5,0.2c0.1,0,0.3,0,0.4,0c0.8,0,1.5-0.6,1.7-1.4l0.1-0.6l-0.6-0.1c-0.1,0-0.3,0-0.4,0c-0.7,0-1.4,0.6-1.6,1.4L43.4,44.1z
		 M49,15.9h0.3c0.5-0.1,0.9-0.4,0.9-0.9c0-0.1,0-0.2,0-0.3l-0.1-0.3h-0.3c-0.5,0.1-0.8,0.5-0.8,1v0.2L49,15.9z M49.3,12.6l0.5,0.3
		c0.3,0.2,0.7,0.3,1,0.3c0.6,0,1.1-0.3,1.4-0.9l0.3-0.5L52,11.5c-0.3-0.2-0.6-0.3-0.9-0.3c-0.6,0-1.1,0.3-1.5,0.9L49.3,12.6z
		 M46.5,53.8l-0.3,0.6c-0.1,0.3-0.2,0.6-0.2,0.9c0,0.8,0.4,1.5,1.1,1.8l0.6,0.3l0.3-0.7c0.2-0.3,0.2-0.6,0.2-0.9
		c0-0.7-0.4-1.4-1.1-1.7L46.5,53.8z"/>
</g>
</svg>
